<svg xmlns="http://www.w3.org/2000/svg" width="25.61" height="26"><path fill="#f94f4f" fill-rule="evenodd" d="M13 0a13 13 0 0 1 12.6 9.81h-1.96a2.46 2.46 0 0 1-.56 1.25 1.59 1.59 0 0 1-1.24.46 3.86 3.86 0 0 1-1.58-.38q-.93-.43-1.85-.89a14.58 14.58 0 0 0-2.2-.87A8.84 8.84 0 0 0 13.57 9a4.68 4.68 0 0 0-4.08 2.2A10.17 10.17 0 0 0 8 16.75v.42h4.36a2.18 2.18 0 0 1 .63-1.23 1.85 1.85 0 0 1 1.33-.46 3.72 3.72 0 0 1 1.52.37q.94.43 1.87.89a15 15 0 0 0 2.28.88 9.31 9.31 0 0 0 2.7.38 4.3 4.3 0 0 0 2.62-.82A13 13 0 1 1 13 0Z"></path></svg>