<svg xmlns="http://www.w3.org/2000/svg" width="38" height="6"><path fill="#fff" d="M2.17 6A2.09 2.09 0 0 0 4 4.94l-1.07-.62a.84.84 0 0 1-.79.46.9.9 0 0 1-.92-.95.9.9 0 0 1 .92-.96.84.84 0 0 1 .8.46L4 2.71a2.1 2.1 0 0 0-1.84-1.06A2.13 2.13 0 0 0 0 3.83 2.13 2.13 0 0 0 2.17 6Zm3.38-.12V4.04a.97.97 0 0 1 1.23-.94V1.7a1.23 1.23 0 0 0-1.23.81v-.73H4.33V5.9h1.22ZM8.97 6a2.15 2.15 0 0 0 2.17-2.17 2.17 2.17 0 1 0-4.34 0A2.15 2.15 0 0 0 8.97 6Zm0-1.2a.92.92 0 0 1-.94-.97.94.94 0 1 1 1.88 0 .92.92 0 0 1-.94.97Zm4.52 1.09.66-2.2.65 2.2h1.14l1.31-4.12h-1.3l-.6 2.2-.63-2.2h-1.15l-.63 2.2-.6-2.2h-1.3l1.3 4.12Zm5.62.11a1.53 1.53 0 0 0 1.22-.5v.39h1.22V.12h-1.22v2.04a1.53 1.53 0 0 0-1.22-.5 2.06 2.06 0 0 0-1.95 2.17A2.06 2.06 0 0 0 19.1 6Zm.25-1.17a.94.94 0 0 1-.98-1 .97.97 0 1 1 1.95 0 .94.94 0 0 1-.97 1Zm4.36 1.05V2.95h.76V1.77h-.76c0-.48.3-.62.76-.58V.01c-1.36-.09-1.98.6-1.98 1.76h-.55v1.18h.55v2.93h1.23Zm2.46.12a1.4 1.4 0 0 0 1.17-.5v.39h1.23V1.77h-1.23v2.25c0 .58-.3.84-.76.84a.68.68 0 0 1-.7-.75V1.77h-1.23V4.3A1.53 1.53 0 0 0 26.18 6Zm4.3-.12V3.64c0-.59.31-.85.76-.85a.68.68 0 0 1 .72.75v2.34h1.22V3.36a1.53 1.53 0 0 0-1.53-1.7 1.4 1.4 0 0 0-1.17.5v-.4h-1.22V5.9Zm5.07.12a1.53 1.53 0 0 0 1.22-.5v.39H38V.12h-1.23v2.04a1.53 1.53 0 0 0-1.21-.5 2.06 2.06 0 0 0-1.96 2.17A2.06 2.06 0 0 0 35.55 6Zm.25-1.17a.94.94 0 0 1-.97-1 .97.97 0 1 1 1.94 0 .94.94 0 0 1-.97 1Z"></path></svg>