<svg xmlns="http://www.w3.org/2000/svg" width="25" height="25"><path fill="#444" d="M1.56 11.56a1.93 1.93 0 0 1 2.61-.1l.12.1 10.15 10.15a1.93 1.93 0 0 1-2.61 2.84l-.12-.11L1.56 14.29a1.93 1.93 0 0 1 0-2.72Z" data-name="Path 5"></path><path fill="#fff" d="M22.19.48A1.65 1.65 0 0 1 25 1.51v10.86a1.65 1.65 0 0 1-3.29.12V5.57l-8.05 7.95a1.65 1.65 0 0 1-2.8-1.02V5.56L2.8 13.51a1.66 1.66 0 0 1-2.22.1l-.1-.1a1.62 1.62 0 0 1-.1-2.2l.1-.1L11.34.48a1.65 1.65 0 0 1 2.8 1.03v6.92Z" data-name="Path 3"></path></svg>