<svg xmlns="http://www.w3.org/2000/svg" width="24" height="24"><path fill="#54e6af" fill-rule="evenodd" d="M12 0A12 12 0 1 1 0 12 12 12 0 0 1 12 0ZM9.94 5.93a1.26 1.26 0 0 0-1.27 1.09l-1 6.98a.14.14 0 0 1-.3.02l-.32-1.43a1.97 1.97 0 0 0-1.88-1.53.57.57 0 1 0 0 1.14.82.82 0 0 1 .75.64l.33 1.43a1.3 1.3 0 0 0 2.56-.1l1-6.99a.11.11 0 0 1 .13-.1H10a.11.11 0 0 1 .07.1l1.41 9.78a1.28 1.28 0 0 0 1.3 1.11h.02a1.28 1.28 0 0 0 1.28-1.15l.2-1.74a.58.58 0 0 0-1.15-.12l-.2 1.73a.15.15 0 0 1-.3 0l-1.41-9.77a1.26 1.26 0 0 0-1.28-1.1Zm4.8 3.92a1.14 1.14 0 0 0-1.13 1.03l-.24 2.14a.58.58 0 0 0 1.15.13l.24-2.14V11a.07.07 0 0 1 .02 0l.46 2.75a1.25 1.25 0 0 0 2.43.1l.2-.87a1.02 1.02 0 0 1 .95-.77.57.57 0 1 0 0-1.15 2.18 2.18 0 0 0-2.07 1.65l-.2.87a.07.07 0 0 1-.08.06c-.07 0-.08-.05-.09-.07l-.45-2.75a1.15 1.15 0 0 0-1.19-.96Z"></path></svg>