<svg xmlns="http://www.w3.org/2000/svg" width="34" height="7"><path fill="#d7e0ff" d="M1 7V4.9a1.64 1.64 0 0 0 1.1.42 1.62 1.62 0 0 0 1.48-.89 1.96 1.96 0 0 0 .22-.93 1.96 1.96 0 0 0-.22-.94 1.62 1.62 0 0 0-1.47-.88 1.69 1.69 0 0 0-.63.12 1.55 1.55 0 0 0-.51.33l-.03-.38H0V7Zm.88-2.56a.82.82 0 0 1-.63-.27A.95.95 0 0 1 1 3.5a.95.95 0 0 1 .25-.68.82.82 0 0 1 .63-.26.83.83 0 0 1 .63.27.95.95 0 0 1 .25.67.96.96 0 0 1-.25.68.82.82 0 0 1-.63.27Zm4.2.88a1.9 1.9 0 0 0 .94-.24 1.76 1.76 0 0 0 .66-.64 1.82 1.82 0 0 0 .24-.94 1.81 1.81 0 0 0-.24-.94 1.76 1.76 0 0 0-.66-.64 1.9 1.9 0 0 0-.95-.24 1.91 1.91 0 0 0-.95.24 1.75 1.75 0 0 0-.66.64 1.82 1.82 0 0 0-.24.94 1.81 1.81 0 0 0 .24.94 1.75 1.75 0 0 0 .66.64 1.91 1.91 0 0 0 .95.24Zm0-.88a.82.82 0 0 1-.64-.27.95.95 0 0 1-.25-.67.95.95 0 0 1 .25-.68.88.88 0 0 1 1.26 0 .95.95 0 0 1 .25.68.96.96 0 0 1-.25.68.82.82 0 0 1-.63.27Zm3.5.81V3.39a.9.9 0 0 1 .2-.63.62.62 0 0 1 .91 0 .86.86 0 0 1 .2.6v1.89h1V3.39a.9.9 0 0 1 .18-.63.61.61 0 0 1 .92 0 .86.86 0 0 1 .2.6v1.89h1V3.37a1.96 1.96 0 0 0-.36-1.24 1.18 1.18 0 0 0-.98-.45 1.32 1.32 0 0 0-.7.18 1.27 1.27 0 0 0-.47.5 1.16 1.16 0 0 0-1.14-.68 1.23 1.23 0 0 0-1 .44l-.01-.37h-.95v3.5h1Zm7.05.07a1.9 1.9 0 0 0 .95-.24 1.76 1.76 0 0 0 .66-.64 1.81 1.81 0 0 0 .24-.94 1.8 1.8 0 0 0-.24-.94 1.75 1.75 0 0 0-.66-.64 2.04 2.04 0 0 0-1.9 0 1.75 1.75 0 0 0-.67.64 1.81 1.81 0 0 0-.24.94 1.8 1.8 0 0 0 .25.94 1.74 1.74 0 0 0 .66.64 1.91 1.91 0 0 0 .95.24Zm0-.88a.82.82 0 0 1-.63-.27.95.95 0 0 1-.25-.67.95.95 0 0 1 .25-.67.88.88 0 0 1 1.26 0 .96.96 0 0 1 .25.67.96.96 0 0 1-.25.68.82.82 0 0 1-.63.27Zm3.96.88a1.69 1.69 0 0 0 .63-.12 1.56 1.56 0 0 0 .5-.33l.03.38h.95V0h-1v2.1a1.68 1.68 0 0 0-2.58.47 1.96 1.96 0 0 0-.22.93 1.97 1.97 0 0 0 .22.94 1.63 1.63 0 0 0 1.47.88Zm.22-.88a.82.82 0 0 1-.63-.27.95.95 0 0 1-.25-.67.95.95 0 0 1 .25-.67.88.88 0 0 1 1.27 0 .95.95 0 0 1 .25.67.96.96 0 0 1-.25.68.82.82 0 0 1-.64.27Zm4.4.88a1.9 1.9 0 0 0 .95-.24 1.76 1.76 0 0 0 .66-.64 1.82 1.82 0 0 0 .24-.94 1.81 1.81 0 0 0-.24-.94 1.75 1.75 0 0 0-.66-.64 2.04 2.04 0 0 0-1.9 0 1.75 1.75 0 0 0-.66.64 1.82 1.82 0 0 0-.24.94 1.81 1.81 0 0 0 .24.94 1.75 1.75 0 0 0 .66.64 1.91 1.91 0 0 0 .95.24Zm0-.88a.82.82 0 0 1-.63-.27.95.95 0 0 1-.25-.67.96.96 0 0 1 .25-.67.88.88 0 0 1 1.27 0 .95.95 0 0 1 .25.67.96.96 0 0 1-.25.68.82.82 0 0 1-.64.27Zm3.52.81V3.71a1.31 1.31 0 0 1 .24-.86.8.8 0 0 1 .65-.3 1.24 1.24 0 0 1 .4.07l.14-.87a1.66 1.66 0 0 0-.47-.07 1.19 1.19 0 0 0-1.04.57l-.05-.5h-.87v3.5h1Zm3.42.07a1.9 1.9 0 0 0 .95-.24 1.76 1.76 0 0 0 .66-.64A1.82 1.82 0 0 0 34 3.5a1.81 1.81 0 0 0-.24-.94 1.75 1.75 0 0 0-.66-.64 2.04 2.04 0 0 0-1.9 0 1.75 1.75 0 0 0-.66.64 1.82 1.82 0 0 0-.25.94 1.81 1.81 0 0 0 .25.94 1.75 1.75 0 0 0 .66.64 1.91 1.91 0 0 0 .95.24Zm0-.88a.82.82 0 0 1-.63-.27.95.95 0 0 1-.25-.67.96.96 0 0 1 .25-.67.88.88 0 0 1 1.26 0 .96.96 0 0 1 .25.67.96.96 0 0 1-.25.68.82.82 0 0 1-.63.27Z"></path></svg>