<svg version="1.0" xmlns="http://www.w3.org/2000/svg" width="933.333" height="933.333" viewBox="0 0 700 700"><path d="M0 350v350h700V0H0v350zm451.5-68.5v189h-87L364 451c-.5-18.9-.5-19.4-2.2-16.8-3.2 4.9-14.2 16.1-21.7 22-31.3 25-81.4 28.4-117.4 8.1-18.8-10.6-36.4-30.3-47.1-52.8-12-24.9-16.2-48.3-15.3-83.9.4-17.3 1-23.3 3.1-33.2 7.9-37.5 27-67.9 53.8-85.8 16.7-11 35.8-16.6 57-16.6 34.9 0 60.5 11.9 84.6 39.4l5.2 6V92l43.8.2 43.7.3v189zm171.5-154V163h-87V92h87v35.5zm-.3 215.2c-.3 130.8-.5 145.6-2 153.3-8.4 42.3-29.2 67.2-64.7 77.3-12.8 3.7-23.9 4.7-52.7 4.7H477v-56.7l14.8-.6c16.5-.6 22.5-2 29.8-7 5.7-3.8 9.5-10.5 12.1-21.2 1.5-6.4 1.7-20 2-150.8l.4-143.7h87l-.4 144.7z"/><path d="M292.6 256.6c-6.6 1.6-15.5 6.1-20.9 10.5-4.2 3.5-11.5 14.2-14.6 21.7-4.2 10-6.2 21.7-6.8 39.4-1.2 34.3 4.9 56.9 19.2 71.4 10.1 10.2 21 14.4 37.5 14.4 22.8 0 37.5-9.1 47.5-29.2 6.2-12.6 8.5-23.7 9.2-44.8.8-24.9-2.5-43.6-10.4-58.2-4.1-7.6-13.3-17-20.2-20.7-10.9-5.8-27.6-7.6-40.5-4.5z"/></svg>