<svg xmlns="http://www.w3.org/2000/svg" width="24" height="24"><path fill="#fff" d="M0 0h24v24H0z"></path><path fill="#f16718" d="M12.86 10.2a.16.16 0 0 1-.17-.18V6.7c0-.07-.06-.08-.1-.03l-.56.98a.22.22 0 0 1-.2.12h-.64a.22.22 0 0 1-.21-.13l-.57-.97c-.03-.05-.09-.04-.09.03v3.33a.16.16 0 0 1-.17.18H8.78a.16.16 0 0 1-.17-.18V3.78a.16.16 0 0 1 .17-.18h1.36a.22.22 0 0 1 .2.12l1.11 1.86a.06.06 0 0 0 .1 0l1.11-1.86a.22.22 0 0 1 .21-.12h1.36a.16.16 0 0 1 .17.18v6.24a.16.16 0 0 1-.17.18Zm-8.02 0a.16.16 0 0 1-.17-.18V5.2a.07.07 0 0 0-.08-.08H3.17A.16.16 0 0 1 3 4.95V3.78a.16.16 0 0 1 .17-.18h4.75a.16.16 0 0 1 .17.18v1.17a.16.16 0 0 1-.17.18H6.45a.07.07 0 0 0-.07.07v4.82a.16.16 0 0 1-.18.18Z"></path></svg>