<svg xmlns="http://www.w3.org/2000/svg" width="24" height="24"><path fill="#0e8784" d="M22.12 9.38c2.9 2.89 2.39 8.1-1.12 11.61a10.03 10.03 0 0 1-6 2.97c-.29.02-.58.04-.86.04a6.61 6.61 0 0 1-4.77-1.89 6.77 6.77 0 0 1-1.83-5.62 10.02 10.02 0 0 1 2.96-5.99c3.52-3.51 8.72-4.02 11.61-1.13Zm-.18.18A23.1 23.1 0 0 1 19.1 13a10.77 10.77 0 0 1-4.16 1.85c-3.34.97-4.99 3.8-5.37 7.08a21.02 21.02 0 0 1 3.13-3.67 10.22 10.22 0 0 1 3.75-1.6c3.41-.93 5.1-3.78 5.5-7.11ZM13.5 3a10.57 10.57 0 0 1 2.17 3.15A11.35 11.35 0 0 0 10.9 8.2a7.17 7.17 0 0 0-1.84-.84A10.76 10.76 0 0 1 4.9 5.51a23.4 23.4 0 0 1-2.84-3.45c.4 3.33 2.09 6.18 5.5 7.11.57.16 1.12.32 1.66.51a11.6 11.6 0 0 0-3.07 5.97A10.6 10.6 0 0 1 3 13.5C-.5 9.98-1.01 4.77 1.88 1.88S9.98-.51 13.48 3Z"/></svg>