<svg xmlns="http://www.w3.org/2000/svg" width="39.98" height="11.42"><path fill="#fff" d="M3.65 11.42a3.76 3.76 0 0 0 2.43-.7 2.31 2.31 0 0 0 .86-1.88v-.1a2 2 0 0 0-.76-1.68 3.8 3.8 0 0 0-1.99-.72 5.9 5.9 0 0 1-1.45-.28.57.57 0 0 1-.4-.56.55.55 0 0 1 .25-.45 1.31 1.31 0 0 1 .77-.19 1.55 1.55 0 0 1 .91.25 1.31 1.31 0 0 1 .5.68l1.83-.73a3.53 3.53 0 0 0-.37-.7 2.78 2.78 0 0 0-.63-.66 3.15 3.15 0 0 0-.94-.48 4.13 4.13 0 0 0-1.3-.18 3.94 3.94 0 0 0-1.12.16 2.99 2.99 0 0 0-.96.47 2.48 2.48 0 0 0-.67.76 2.06 2.06 0 0 0-.25 1.04v.1a2 2 0 0 0 .79 1.72 4.12 4.12 0 0 0 2.13.7 6.08 6.08 0 0 1 .83.13 1.78 1.78 0 0 1 .52.2.71.71 0 0 1 .26.25.62.62 0 0 1 .07.3.66.66 0 0 1-.28.5 1.67 1.67 0 0 1-1.03.23 1.78 1.78 0 0 1-1.26-.38 1.82 1.82 0 0 1-.53-.9L0 8.92a3.07 3.07 0 0 0 .31.86 2.67 2.67 0 0 0 .67.8 3.63 3.63 0 0 0 1.08.6 4.62 4.62 0 0 0 1.59.24Zm8.2 0a4.05 4.05 0 0 0 2.71-.86 3.84 3.84 0 0 0 1.29-2.27l-1.99-.5a2.22 2.22 0 0 1-.63 1.25 1.97 1.97 0 0 1-1.41.46 2.42 2.42 0 0 1-.82-.13 1.88 1.88 0 0 1-.67-.41 1.93 1.93 0 0 1-.46-.68 2.44 2.44 0 0 1-.17-.94v-.1a2.56 2.56 0 0 1 .17-.94 2.15 2.15 0 0 1 .45-.72 2 2 0 0 1 .68-.46 2.1 2.1 0 0 1 .82-.16 1.94 1.94 0 0 1 1.44.51 2.08 2.08 0 0 1 .6 1.22l1.99-.51a3.8 3.8 0 0 0-1.3-2.28 4.06 4.06 0 0 0-2.7-.86 4.55 4.55 0 0 0-1.63.29 3.89 3.89 0 0 0-1.32.83A3.83 3.83 0 0 0 8 5.47a4.46 4.46 0 0 0-.32 1.73v.2A4.34 4.34 0 0 0 8 9.1a3.59 3.59 0 0 0 .88 1.26 3.85 3.85 0 0 0 1.32.79 4.83 4.83 0 0 0 1.64.27Zm8.2 0a4.5 4.5 0 0 0 1.56-.27 4 4 0 0 0 1.32-.79 3.73 3.73 0 0 0 .91-1.28 4.3 4.3 0 0 0 .34-1.75v-.2a4.25 4.25 0 0 0-.35-1.73 3.81 3.81 0 0 0-.91-1.29 3.93 3.93 0 0 0-1.32-.8 4.6 4.6 0 0 0-3.12 0 3.93 3.93 0 0 0-1.32.8 3.81 3.81 0 0 0-.91 1.29 4.25 4.25 0 0 0-.34 1.74v.19a4.3 4.3 0 0 0 .34 1.75 3.73 3.73 0 0 0 .9 1.28 4 4 0 0 0 1.33.8 4.5 4.5 0 0 0 1.56.26Zm0-1.92a2.3 2.3 0 0 1-.82-.14 1.94 1.94 0 0 1-1.13-1.08 2.23 2.23 0 0 1-.17-.89v-.32a2.23 2.23 0 0 1 .17-.89 1.94 1.94 0 0 1 1.12-1.08 2.38 2.38 0 0 1 1.64 0 1.99 1.99 0 0 1 .67.42 1.96 1.96 0 0 1 .45.66 2.23 2.23 0 0 1 .17.89v.32a2.23 2.23 0 0 1-.17.89 1.94 1.94 0 0 1-1.12 1.08 2.3 2.3 0 0 1-.82.14Zm8.29 1.92a4.5 4.5 0 0 0 1.56-.27 4 4 0 0 0 1.32-.79 3.73 3.73 0 0 0 .91-1.28 4.3 4.3 0 0 0 .34-1.75v-.2a4.25 4.25 0 0 0-.35-1.73 3.81 3.81 0 0 0-.9-1.29 3.93 3.93 0 0 0-1.33-.8 4.6 4.6 0 0 0-3.12 0 3.93 3.93 0 0 0-1.32.8 3.81 3.81 0 0 0-.91 1.29 4.25 4.25 0 0 0-.34 1.74v.19a4.3 4.3 0 0 0 .34 1.75 3.73 3.73 0 0 0 .9 1.28 4 4 0 0 0 1.33.8 4.5 4.5 0 0 0 1.56.26Zm0-1.92a2.3 2.3 0 0 1-.82-.14 1.94 1.94 0 0 1-1.12-1.08 2.23 2.23 0 0 1-.17-.89v-.32a2.23 2.23 0 0 1 .17-.89 1.94 1.94 0 0 1 1.12-1.08 2.38 2.38 0 0 1 1.63 0 1.99 1.99 0 0 1 .67.42 1.96 1.96 0 0 1 .46.66 2.23 2.23 0 0 1 .16.89v.32a2.23 2.23 0 0 1-.16.89 1.94 1.94 0 0 1-1.13 1.08 2.3 2.3 0 0 1-.82.14Zm11.36 1.7V9.28h-2.15q-.43 0-.43-.48V5.18h2.86V3.26h-2.86V0H35.1v3.26h-2.35v1.92h2.35v4.77a1.23 1.23 0 0 0 .34.9 1.19 1.19 0 0 0 .9.35h3.35Z"/></svg>