<?xml version="1.0" standalone="no"?>
<!DOCTYPE svg PUBLIC "-//W3C//DTD SVG 20010904//EN"
 "http://www.w3.org/TR/2001/REC-SVG-20010904/DTD/svg10.dtd">
<svg version="1.0" xmlns="http://www.w3.org/2000/svg"
 width="700.000000pt" height="700.000000pt" viewBox="0 0 700.000000 700.000000"
 preserveAspectRatio="xMidYMid meet">
<metadata>
Created by potrace 1.14, written by Peter Selinger 2001-2017
</metadata>
<g transform="translate(0.000000,700.000000) scale(0.100000,-0.100000)"
fill="#000000" stroke="none">
<path d="M0 3500 l0 -3500 3500 0 3500 0 0 3500 0 3500 -3500 0 -3500 0 0
-3500z m4515 685 l0 -1890 -435 0 -435 0 -5 195 c-5 189 -5 194 -22 168 -32
-49 -142 -161 -217 -220 -313 -250 -814 -284 -1174 -81 -188 106 -364 303
-471 528 -120 249 -162 483 -153 839 4 173 10 233 31 332 79 375 270 679 538
858 167 110 358 166 570 166 349 0 605 -119 846 -394 l52 -60 0 727 0 727 438
-2 437 -3 0 -1890z m1715 1540 l0 -355 -435 0 -435 0 0 355 0 355 435 0 435 0
0 -355z m-3 -2152 c-3 -1308 -5 -1456 -20 -1533 -84 -423 -292 -672 -647 -773
-128 -37 -239 -47 -527 -47 l-263 0 0 284 0 283 148 6 c165 6 225 20 298 70
57 38 95 105 121 212 15 64 17 200 20 1508 l4 1437 435 0 435 0 -4 -1447z"/>
<path d="M2926 4434 c-66 -16 -155 -61 -209 -105 -42 -35 -115 -142 -146 -217
-42 -100 -62 -217 -68 -394 -12 -343 49 -569 192 -714 101 -102 210 -144 375
-144 228 0 375 91 475 292 62 126 85 237 92 448 8 249 -25 436 -104 582 -41
76 -133 170 -202 207 -109 58 -276 76 -405 45z"/>
</g>
</svg>
