<svg xmlns="http://www.w3.org/2000/svg" xmlns:xlink="http://www.w3.org/1999/xlink" viewBox="0 0 1440 160">
  <defs>
    <path id="a" fill="#5964e0" d="M0 0h1440v160H100A100 100 0 0 1 0 60V0Z"/>
  </defs>
  <defs>
    <clipPath id="b">
      <use xlink:href="#a" transform="translate(0 .46)"/>
    </clipPath>
  </defs>
  <use xlink:href="#a" data-name="Mask"/>
  <g fill="#fff" clip-path="url(#b)" transform="translate(0 -.46)">
    <path d="M1163.85-204.96c21.13-23.96 60.32-15.62 69.87 14.86l114.06 364.13c9.38 29.93-16.97 58.88-47.65 52.35L933.7 148.45c-30.68-6.52-42.97-43.69-22.22-67.21Z" data-name="Triangle" opacity=".08"/>
    <path d="M254.53-322.9c-3.13-31.8 29.7-54.8 58.51-41.01l344.27 164.77c28.3 13.54 31.53 52.56 5.84 70.56L356.29 86.5c-25.7 18-61.27 1.66-64.34-29.56Z" data-name="Triangle Copy" opacity=".08"/>
    <path d="M-71.47 72.1c-3.13-31.8 29.7-54.8 58.51-41.01l344.27 164.77c28.3 13.54 31.53 52.56 5.84 70.56L30.29 481.5c-25.7 18-61.27 1.66-64.34-29.56Z" data-name="Triangle Copy 2" opacity=".08"/>
  </g>
</svg>