<svg xmlns="http://www.w3.org/2000/svg" width="38" height="3"><path fill="#fff" d="M3.23 2.91 4.9.1H3.7L2.48 2.4 1.24.08H0L1.7 2.9Zm7.88 0v-.84H7.77v-.35h2.72v-.44H7.77V.93h3.33V.09H6.68V2.9h4.43Zm4.54.09a5.65 5.65 0 0 0 1.38-.14 1.75 1.75 0 0 0 .83-.42 1.03 1.03 0 0 0 .3-.7h-1.14a.56.56 0 0 1-.2.2 1.13 1.13 0 0 1-.42.17 3.93 3.93 0 0 1-.75.05 5.11 5.11 0 0 1-.92-.06 1.1 1.1 0 0 1-.5-.21.46.46 0 0 1-.17-.37.52.52 0 0 1 .16-.4 1.04 1.04 0 0 1 .51-.21 4.9 4.9 0 0 1 .92-.07 3.63 3.63 0 0 1 .76.06 1.06 1.06 0 0 1 .42.17.56.56 0 0 1 .2.25h1.13a1.1 1.1 0 0 0-.3-.72 1.78 1.78 0 0 0-.83-.45A5.27 5.27 0 0 0 15.65 0a7.8 7.8 0 0 0-1.14.07 2.9 2.9 0 0 0-.86.26 1.32 1.32 0 0 0-.54.46 1.32 1.32 0 0 0-.2.73 1.3 1.3 0 0 0 .2.73 1.29 1.29 0 0 0 .54.45 3.02 3.02 0 0 0 .86.23 8.67 8.67 0 0 0 1.14.07Zm7.02-.09V.93h1.73V.09h-4.56v.84h1.73V2.9h1.1ZM28.6 3a5.7 5.7 0 0 0 1.54-.17 1.62 1.62 0 0 0 .85-.5 1.29 1.29 0 0 0 .26-.83A1.28 1.28 0 0 0 31 .68a1.63 1.63 0 0 0-.85-.5A5.7 5.7 0 0 0 28.6 0a5.68 5.68 0 0 0-1.54.17 1.63 1.63 0 0 0-.85.5 1.28 1.28 0 0 0-.26.83 1.28 1.28 0 0 0 .26.82 1.63 1.63 0 0 0 .85.5A5.67 5.67 0 0 0 28.6 3Zm0-.84a5.1 5.1 0 0 1-.8-.05 1.18 1.18 0 0 1-.52-.2.48.48 0 0 1-.19-.41.48.48 0 0 1 .2-.4 1.2 1.2 0 0 1 .52-.2 5.1 5.1 0 0 1 .79-.06 4.87 4.87 0 0 1 .78.05 1.1 1.1 0 0 1 .51.2.5.5 0 0 1 .18.41.5.5 0 0 1-.18.4 1.1 1.1 0 0 1-.51.2 4.87 4.87 0 0 1-.78.06Zm5.7.75v-.8H36a3.65 3.65 0 0 1 .52.03.34.34 0 0 1 .22.1.33.33 0 0 1 .05.2v.47h1.1v-.6a.38.38 0 0 0-.11-.3.73.73 0 0 0-.4-.14l-.1-.02h-.05.08a1.16 1.16 0 0 0 .29-.1l.06-.04a.63.63 0 0 0 .24-.24.82.82 0 0 0 .09-.41.84.84 0 0 0-.19-.58 1.03 1.03 0 0 0-.5-.3 2.62 2.62 0 0 0-.72-.09H33.2v2.82h1.1Zm2.29-1.53H34.3V.97h2.3a.54.54 0 0 1 .21.04.16.16 0 0 1 .1.16.17.17 0 0 1-.1.17.5.5 0 0 1-.22.04Z"/></svg>